<?xml version="1.0" standalone="no"?>
<!DOCTYPE svg PUBLIC "-//W3C//DTD SVG 20010904//EN"
 "http://www.w3.org/TR/2001/REC-SVG-20010904/DTD/svg10.dtd">
<svg version="1.0" xmlns="http://www.w3.org/2000/svg"
 width="2706.000000pt" height="464.000000pt" viewBox="0 0 2706.000000 464.000000"
 preserveAspectRatio="xMidYMid meet">
<metadata>
Created by potrace 1.16, written by Peter Selinger 2001-2019
</metadata>
<g transform="translate(0.000000,464.000000) scale(0.100000,-0.100000)"
fill="#000000" stroke="none">
<path d="M11020 4324 c-47 -8 -95 -22 -108 -30 -54 -36 -151 -228 -227 -453
-18 -53 -106 -244 -197 -426 -387 -779 -571 -1228 -599 -1463 l-9 -83 45 -46
46 -46 56 12 c31 6 59 9 61 6 3 -3 11 0 18 6 10 8 18 5 31 -10 12 -14 29 -21
55 -21 21 0 52 -9 70 -20 18 -11 38 -20 45 -20 23 0 248 475 513 1083 126 289
141 322 154 322 5 0 22 -45 37 -100 36 -136 65 -216 110 -306 38 -77 104 -149
137 -149 28 0 83 -23 163 -68 42 -23 79 -42 81 -42 3 0 18 12 34 26 16 14 45
34 64 44 24 12 68 62 132 147 93 125 276 329 285 319 3 -2 -29 -71 -70 -153
-149 -295 -238 -506 -281 -665 -22 -79 -26 -114 -24 -190 3 -86 5 -93 24 -96
12 -2 26 -14 32 -27 13 -28 48 -50 57 -35 9 15 31 12 77 -10 23 -11 51 -17 63
-14 13 3 26 1 29 -5 8 -12 76 -15 91 -3 36 26 102 140 165 282 40 91 93 201
118 245 68 120 195 377 197 400 2 12 17 42 35 68 71 105 434 947 495 1147 47
154 46 160 -75 261 -99 83 -130 92 -257 72 -135 -21 -179 -46 -288 -160 -89
-94 -436 -442 -736 -739 -85 -85 -160 -154 -166 -154 -19 0 -59 126 -68 215
-9 96 -8 155 4 433 14 298 19 272 -68 366 -81 86 -183 109 -351 80z"/>
<path d="M24589 4317 c-14 -8 -37 -17 -51 -20 -69 -18 -107 -83 -168 -287 -54
-180 -149 -459 -211 -615 -65 -166 -158 -358 -175 -363 -11 -3 -95 178 -164
353 -108 270 -190 583 -190 721 0 41 -6 59 -30 92 -40 55 -99 93 -155 100 -68
7 -320 -26 -409 -55 l-48 -15 -63 -132 c-79 -164 -141 -296 -215 -456 -32 -69
-107 -222 -167 -340 -336 -663 -523 -1115 -523 -1268 0 -43 6 -56 57 -124 54
-74 58 -77 92 -73 153 19 159 18 227 -25 84 -53 119 -54 141 -3 8 21 15 58 14
83 -3 126 62 321 204 620 59 124 129 270 155 325 26 55 77 161 112 235 36 74
93 196 129 270 35 74 68 138 74 142 13 10 16 4 74 -170 29 -85 128 -336 221
-560 94 -223 170 -416 170 -429 0 -13 -11 -50 -25 -82 -35 -83 -65 -198 -65
-248 0 -42 6 -52 80 -136 24 -27 28 -29 95 -25 60 2 78 -1 118 -22 40 -21 50
-23 77 -13 25 9 33 8 54 -8 33 -26 72 -24 90 4 9 12 52 133 96 267 88 263 174
485 253 645 27 55 79 178 117 275 212 546 315 813 373 960 88 228 87 211 31
270 -27 29 -73 63 -109 81 -54 26 -77 31 -162 36 -73 3 -105 1 -124 -10z"/>
<path d="M21540 4284 c-103 -12 -382 -58 -459 -75 -57 -13 -275 -28 -407 -29
-212 0 -516 -62 -612 -124 -113 -72 -129 -139 -66 -265 44 -87 113 -160 191
-197 55 -27 65 -29 188 -28 123 1 239 14 434 48 47 8 88 13 92 10 16 -9 -224
-223 -514 -456 l-168 -135 -119 3 c-89 2 -125 6 -142 18 -13 9 -43 16 -70 16
-52 0 -65 16 -20 26 85 18 163 46 159 57 -3 7 -10 11 -17 9 -7 -2 -42 -6 -78
-9 -53 -5 -64 -4 -60 8 2 7 19 18 36 23 18 5 32 15 32 23 0 11 -12 13 -60 7
-52 -6 -60 -4 -60 10 0 9 -5 16 -11 16 -6 0 -9 -7 -5 -15 4 -12 -3 -15 -29
-15 -18 0 -37 5 -40 10 -3 6 -23 8 -43 5 -352 -46 -364 -47 -376 -34 -20 22
-44 117 -55 219 -20 172 -62 452 -90 596 -27 142 -150 226 -359 244 -167 15
-193 -3 -253 -179 -23 -68 -56 -149 -74 -180 -18 -31 -41 -72 -52 -91 -25 -44
-104 -181 -135 -236 -170 -301 -222 -387 -296 -487 -118 -158 -229 -316 -287
-407 -26 -41 -70 -99 -97 -129 -82 -90 -169 -210 -210 -289 -36 -70 -39 -79
-36 -151 3 -70 5 -76 26 -79 12 -2 27 -12 32 -22 10 -19 94 -80 110 -80 5 0
16 -13 24 -29 16 -31 56 -61 81 -61 8 0 20 -11 25 -25 5 -14 16 -25 24 -25 22
0 97 61 131 107 16 22 71 96 120 164 50 67 111 146 138 175 26 28 47 56 47 61
0 38 158 122 362 194 146 51 406 129 432 129 9 0 18 -10 20 -22 26 -135 27
-141 71 -343 32 -142 82 -320 100 -355 7 -14 36 -47 63 -74 40 -39 55 -47 74
-43 17 5 31 -1 53 -22 16 -16 65 -48 108 -70 91 -48 137 -52 225 -20 242 88
491 138 822 164 161 12 550 21 550 13 0 -2 -7 -21 -15 -43 -25 -71 -14 -138
18 -106 18 18 27 13 27 -18 0 -60 21 -56 116 20 49 40 97 79 107 88 18 15 18
14 12 -22 -11 -56 11 -47 40 18 26 56 50 75 39 30 -8 -33 14 -33 41 0 20 26
21 26 200 29 169 2 183 4 237 28 57 27 81 52 92 100 5 22 2 30 -18 40 -13 7
-35 27 -49 44 -25 30 -26 32 -12 77 13 43 12 48 -7 72 -19 24 -19 27 -4 44 23
25 20 35 -14 48 -42 16 -61 -31 240 588 51 105 111 231 135 280 100 212 176
358 247 476 42 69 99 168 127 220 65 122 66 152 12 223 -86 111 -209 166 -370
166 -117 0 -176 -35 -221 -131 -13 -27 -27 -49 -31 -49 -4 0 -17 20 -29 43
-33 66 -95 133 -146 157 -45 22 -161 34 -244 24z m226 -666 c-158 -351 -341
-765 -437 -987 l-118 -275 -358 2 c-197 1 -410 -2 -473 -7 -63 -5 -119 -6
-124 -1 -4 5 9 19 30 33 105 65 376 291 669 556 169 153 189 172 433 402 118
111 383 329 399 329 2 0 -8 -24 -21 -52z m-2956 -385 c6 -32 15 -75 20 -96 11
-50 0 -59 -103 -91 -86 -27 -107 -31 -107 -19 0 23 154 263 170 263 5 0 14
-26 20 -57z m1140 -416 c0 -2 -53 -51 -117 -108 -65 -57 -162 -147 -216 -200
-85 -85 -98 -94 -102 -76 -2 12 -18 78 -35 146 -16 69 -30 133 -30 142 0 21
11 25 107 39 141 20 388 58 391 59 1 0 2 -1 2 -2z"/>
<path d="M26370 4260 c-52 -5 -156 -13 -230 -19 -86 -7 -232 -9 -400 -5 -286
8 -314 4 -377 -43 -22 -16 -37 -39 -47 -71 -13 -43 -73 -176 -206 -457 -29
-60 -65 -137 -80 -170 -15 -33 -58 -125 -95 -205 -37 -80 -84 -183 -105 -230
-21 -47 -51 -114 -68 -150 -116 -251 -248 -559 -322 -750 -91 -236 -96 -260
-55 -260 20 0 25 -5 25 -25 0 -22 4 -25 34 -25 42 0 95 -18 121 -41 15 -13 31
-16 67 -12 43 5 51 2 83 -26 20 -17 40 -31 46 -31 26 0 89 56 113 101 33 59
76 84 222 127 94 28 337 80 544 117 544 97 877 193 766 221 -14 3 -28 15 -31
25 -10 30 -44 46 -119 58 -37 5 -70 12 -72 14 -10 10 10 37 27 37 32 0 21 19
-13 22 l-33 3 42 25 c24 14 43 30 43 37 0 6 -16 27 -36 47 -31 31 -41 36 -69
30 -23 -4 -34 -2 -38 9 -5 13 -15 13 -74 2 -37 -8 -124 -23 -193 -34 -211 -34
-552 -91 -602 -100 -26 -4 -50 -6 -52 -4 -6 6 58 155 96 223 36 65 92 136 118
150 10 5 114 30 232 55 556 119 686 162 588 197 -23 7 -29 15 -25 28 4 13 -3
21 -25 30 -40 17 -72 58 -68 90 1 14 -2 31 -6 39 -9 14 8 31 32 31 17 0 15 17
-4 24 -9 3 -29 6 -45 6 -16 0 -29 5 -29 10 0 6 5 10 10 10 6 0 10 10 10 22 0
21 -1 21 -153 15 -84 -4 -177 -12 -205 -18 -29 -7 -55 -10 -58 -6 -3 3 25 68
64 143 l69 138 65 27 c178 73 415 143 523 154 217 22 413 56 472 80 38 16 40
36 2 46 -13 3 -23 11 -22 17 2 7 -21 25 -50 42 -45 26 -62 30 -129 30 -75 0
-98 10 -60 25 14 5 10 9 -17 18 -40 14 -50 32 -21 40 30 8 24 25 -12 36 -30 9
-31 10 -11 16 21 7 21 8 -12 41 -19 19 -38 33 -42 33 -4 -1 -51 -5 -103 -9z"/>
<path d="M14126 4245 c-57 -20 -70 -38 -111 -160 -45 -132 -46 -133 -194 -393
-65 -114 -155 -273 -200 -353 -46 -80 -135 -215 -198 -300 -63 -85 -161 -224
-219 -309 -58 -85 -136 -191 -175 -235 -83 -96 -169 -223 -193 -285 -12 -31
-16 -68 -14 -115 3 -64 5 -70 26 -73 12 -2 27 -12 32 -22 10 -19 94 -80 110
-80 5 0 16 -13 24 -29 16 -31 56 -61 81 -61 8 0 20 -11 25 -25 5 -14 16 -25
24 -25 35 0 107 75 213 220 62 85 138 183 168 217 30 34 55 66 55 70 0 38 159
122 362 194 146 51 406 129 432 129 9 0 18 -10 20 -22 3 -13 12 -61 21 -108
40 -211 120 -532 147 -585 15 -28 110 -125 124 -125 6 0 35 10 64 22 44 18 55
19 72 9 30 -18 98 -22 98 -5 0 17 1 17 36 -1 41 -21 71 -19 88 8 13 18 14 42
6 139 -5 65 -12 123 -15 130 -4 7 8 -5 26 -27 104 -126 237 -220 378 -266 232
-74 595 -59 861 37 140 50 253 113 515 287 239 158 380 279 410 350 8 19 45
65 83 103 73 73 104 122 123 197 10 43 9 51 -21 114 -17 37 -41 79 -53 92 -36
39 -95 71 -140 77 -36 5 -288 -34 -552 -86 -27 -6 -124 -24 -215 -41 -254 -47
-407 -78 -555 -114 -33 -8 -107 -25 -165 -39 -124 -30 -244 -69 -278 -92 -24
-16 -25 -17 -7 -30 10 -8 32 -14 48 -14 27 0 28 -2 22 -30 -6 -26 -4 -30 14
-30 23 0 29 -16 9 -23 -22 -8 0 -19 47 -24 54 -7 67 -20 28 -29 -46 -10 -53
-13 -53 -24 0 -5 18 -10 40 -10 33 0 40 -3 40 -20 0 -11 12 -26 29 -34 16 -9
41 -30 55 -47 l27 -32 157 12 c86 6 178 13 205 16 52 5 63 -9 20 -26 -147 -56
-359 -100 -484 -100 -141 0 -221 28 -263 93 -29 44 -35 93 -25 201 9 91 47
256 69 298 6 10 28 19 59 23 28 4 96 18 152 32 174 44 226 76 154 96 -16 4
-39 18 -51 32 -14 14 -39 26 -64 30 -22 3 -58 9 -80 12 -22 3 -40 10 -40 15 0
14 130 157 216 238 170 159 426 310 617 365 206 59 281 70 467 70 205 0 287
-12 430 -60 58 -20 133 -38 167 -41 l61 -6 20 39 c21 42 52 184 52 238 0 76
-122 226 -227 280 -102 51 -183 66 -358 66 -411 0 -803 -98 -1147 -286 -159
-87 -202 -121 -379 -301 -158 -160 -251 -267 -332 -379 l-37 -51 -166 -23
c-139 -18 -168 -20 -178 -8 -23 26 -46 126 -66 293 -20 169 -25 203 -55 385
-25 148 -30 173 -48 207 -26 49 -86 103 -143 129 -91 41 -264 61 -328 39z
m132 -997 c6 -24 14 -70 17 -104 8 -69 16 -62 -114 -104 -67 -21 -91 -25 -91
-13 0 23 154 263 169 263 5 0 13 -19 19 -42z"/>
<path d="M453 4056 l-163 -158 0 -695 0 -695 -67 -69 -67 -70 147 -147 147
-147 147 147 147 147 -62 70 -62 69 0 241 0 242 153 -3 152 -3 3 -236 2 -236
-66 -72 -67 -73 146 -146 147 -147 149 149 150 148 -70 74 -69 73 2 846 c2
465 1 845 -2 845 -3 0 -76 -71 -163 -158 l-157 -157 0 -286 c0 -232 -3 -289
-14 -298 -9 -8 -59 -11 -152 -9 l-139 3 -5 454 -5 454 -162 -157z"/>
<path d="M3943 4053 l-163 -155 0 -695 0 -695 -67 -69 -67 -70 147 -147 147
-147 145 145 c80 80 145 147 145 150 0 3 -27 35 -60 72 l-61 67 3 140 3 140
145 -139 145 -138 -68 -71 -69 -71 143 -145 c78 -80 147 -145 153 -145 6 0 76
65 156 145 l145 145 -299 299 -299 299 227 222 c124 123 226 227 226 231 0 11
-377 389 -388 389 -4 0 -52 -45 -107 -100 -55 -55 -103 -100 -107 -100 -4 0
-9 135 -10 299 l-3 300 -162 -156z m397 -773 c0 -8 -52 -67 -115 -130 l-115
-115 0 177 0 176 36 32 37 32 78 -78 c44 -43 79 -85 79 -94z"/>
<path d="M5203 4048 l-163 -163 0 -690 0 -689 -67 -68 -68 -68 148 -148 147
-147 145 145 c80 80 145 149 145 155 0 6 -27 37 -60 70 l-60 59 0 393 0 393
41 0 c40 0 47 6 196 153 l154 152 -193 5 -193 5 -5 303 -5 302 -162 -162z"/>
<path d="M6858 4051 l-158 -159 0 -693 0 -693 212 -213 c117 -117 217 -213
223 -213 5 0 119 109 253 243 l242 242 0 385 0 385 -235 235 -236 236 -62 -58
c-33 -31 -63 -56 -65 -53 -2 2 -3 119 -3 259 1 141 -1 256 -5 256 -4 0 -79
-72 -166 -159z m442 -1111 l0 -235 -87 -87 c-48 -49 -92 -88 -98 -88 -6 0 -28
17 -48 38 l-37 37 0 400 c0 220 0 409 0 420 0 14 38 -18 135 -115 l135 -135 0
-235z"/>
<path d="M1713 3578 l-233 -233 0 -415 0 -415 219 -219 219 -219 127 119 c69
65 131 121 137 123 6 2 66 -52 134 -120 l124 -124 115 115 115 114 -130 132
-130 131 0 389 -1 389 -232 233 -232 233 -232 -233z m246 -275 l131 -138 0
-225 0 -225 -92 -92 c-51 -51 -96 -93 -100 -93 -4 0 -26 16 -48 36 l-40 36 0
419 c0 248 4 419 9 419 5 0 68 -62 140 -137z"/>
<path d="M5887 3578 l-227 -233 0 -420 0 -420 213 -213 c117 -116 216 -212
221 -212 5 0 119 109 253 242 l243 242 0 386 0 385 -238 238 -238 238 -227
-233z m240 -270 l133 -133 0 -228 0 -228 -87 -95 c-49 -52 -93 -94 -98 -94 -6
0 -30 19 -53 43 l-42 43 0 412 c0 227 3 412 7 412 4 0 67 -60 140 -132z"/>
<path d="M9133 3559 l-253 -252 0 -401 0 -400 -65 -66 -65 -66 141 -147 c77
-81 146 -147 152 -147 7 0 77 65 157 145 l144 144 -67 70 -67 69 0 466 c0 256
3 466 7 466 4 0 54 -46 110 -102 l103 -103 132 132 131 131 -154 156 -154 157
-252 -252z"/>
<path d="M2878 3573 l-228 -228 0 -415 0 -415 218 -223 217 -223 245 246 245
245 -118 117 -117 118 -134 -134 c-148 -148 -133 -142 -198 -82 l-28 25 0 418
c0 230 2 418 5 418 3 0 82 -79 176 -175 95 -96 177 -175 183 -175 6 0 63 52
128 117 l117 116 -230 236 c-127 130 -236 237 -242 239 -7 1 -114 -100 -239
-225z"/>
<path d="M7968 3573 l-228 -228 0 -417 0 -417 218 -221 217 -221 245 245 245
246 -118 117 -117 118 -133 -133 c-73 -72 -136 -132 -140 -132 -4 0 -25 16
-47 36 -38 34 -40 40 -40 93 l0 56 304 304 305 304 -231 236 c-126 130 -235
237 -241 239 -7 1 -114 -100 -239 -225z m124 -142 c2 -6 59 -67 127 -136 l124
-126 -136 -137 -137 -137 0 273 c0 158 4 272 9 272 5 0 11 -4 13 -9z"/>
<path d="M19390 1261 l0 -51 45 0 c26 0 45 5 45 11 0 17 198 8 209 -9 4 -7 30
-24 57 -36 58 -27 118 -90 147 -155 29 -64 36 -244 13 -322 -29 -102 -100
-179 -191 -210 -22 -7 -45 -17 -52 -22 -20 -14 -169 -21 -177 -8 -4 6 -27 11
-52 11 l-44 0 0 -51 0 -52 143 5 c130 4 148 7 205 33 39 17 76 44 97 67 18 22
51 55 74 74 l40 35 91 -91 c50 -50 108 -99 128 -107 51 -23 166 -22 215 2 38
18 86 61 88 80 1 6 18 20 39 32 21 13 45 34 54 48 16 25 16 27 -6 45 -13 11
-26 19 -30 20 -11 0 -48 -38 -48 -49 0 -13 -81 -81 -96 -81 -7 0 -20 -7 -29
-16 -63 -64 -245 14 -308 131 -18 33 -22 57 -22 141 0 92 3 105 30 159 20 39
46 71 75 92 25 19 54 40 65 49 11 8 31 17 43 21 25 6 108 -14 98 -24 -3 -3 13
-15 35 -26 72 -35 119 -127 119 -232 0 -48 2 -54 23 -57 18 -2 29 -23 67 -125
45 -121 45 -122 79 -125 30 -3 36 -8 51 -48 17 -42 20 -45 56 -45 37 0 39 2
53 47 13 43 17 47 49 50 37 3 34 -2 88 148 4 10 10 5 20 -18 18 -44 176 -200
222 -220 51 -22 166 -20 214 2 41 20 100 75 93 86 -3 5 2 10 10 14 8 3 15 1
15 -4 0 -6 20 -10 45 -10 l45 0 0 390 0 390 -45 0 -44 0 -3 -132 -3 -133 -25
29 c-71 83 -99 104 -155 116 -85 18 -145 0 -208 -61 -44 -43 -56 -49 -93 -49
l-42 0 -60 -167 c-33 -93 -77 -216 -98 -275 l-38 -108 -42 0 -41 0 -97 264
c-53 146 -96 269 -96 275 0 6 -14 11 -31 11 -23 0 -41 11 -78 49 -59 61 -129
81 -214 60 -45 -10 -62 -22 -123 -86 l-72 -75 -26 58 c-14 31 -50 80 -79 110
-28 29 -67 69 -85 88 -64 70 -98 80 -274 84 l-158 4 0 -51z m1949 -212 c18 -6
30 -14 27 -17 -3 -2 13 -14 35 -25 81 -40 113 -114 124 -285 6 -93 4 -118 -9
-147 -17 -35 -81 -95 -103 -95 -6 0 -19 -7 -28 -16 -63 -64 -245 14 -308 131
-18 33 -22 57 -22 141 0 92 3 105 30 159 20 39 46 70 75 92 25 18 50 37 55 41
42 34 73 39 124 21z"/>
<path d="M21228 925 c-24 -14 -68 -86 -68 -113 0 -8 18 -12 50 -12 38 0 50 4
50 15 0 9 9 15 25 15 14 0 28 -7 31 -15 4 -10 21 -15 54 -15 l48 0 -7 33 c-17
74 -53 107 -116 107 -22 -1 -52 -7 -67 -15z"/>
<path d="M21159 677 c18 -78 61 -119 133 -125 56 -4 113 11 103 28 -3 5 0 10
8 10 8 0 20 7 27 15 7 9 29 15 51 15 34 0 39 3 39 23 0 55 -10 67 -56 67 -23
0 -46 -4 -49 -10 -3 -5 -39 -10 -80 -10 -41 0 -77 5 -80 10 -3 6 -28 10 -55
10 l-48 0 7 -33z"/>
<path d="M21737 1244 c-4 -4 -7 -180 -7 -391 l0 -383 49 0 c47 0 50 2 53 27 3
28 4 27 63 -33 78 -80 112 -97 200 -98 87 -1 119 15 200 97 l60 61 3 -132 3
-132 44 0 45 0 0 364 c0 200 -3 371 -6 380 -4 11 -19 16 -45 16 -32 0 -39 -3
-39 -20 0 -39 -24 -23 -84 55 -62 80 -207 106 -299 52 -25 -15 -59 -44 -74
-65 -15 -20 -36 -45 -47 -54 -21 -17 -21 -17 -26 120 l-5 137 -40 3 c-23 2
-44 0 -48 -4z m427 -207 c6 -8 30 -24 54 -36 121 -61 169 -260 98 -405 -43
-88 -161 -163 -238 -153 -23 3 -44 9 -47 14 -3 4 -27 18 -53 30 -111 52 -165
209 -122 353 21 71 54 118 106 152 24 15 49 33 57 40 8 7 22 16 30 20 25 12
104 2 115 -15z"/>
<path d="M22024 921 c-49 -30 -69 -82 -69 -181 0 -98 17 -139 68 -170 44 -28
116 -27 152 2 64 50 87 194 45 285 -34 76 -127 106 -196 64z m109 -85 c13 -32
17 -104 10 -141 -9 -38 -10 -40 -48 -40 l-40 0 -3 77 c-2 43 2 87 8 98 12 23
65 28 73 6z"/>
<path d="M19280 835 l0 -365 50 0 50 0 0 365 0 365 -50 0 -50 0 0 -365z"/>
<path d="M22651 1130 c-18 -4 -46 -17 -62 -29 -36 -27 -39 -26 -39 4 0 23 -4
25 -45 25 l-45 0 0 -55 0 -55 45 0 c41 0 45 -2 45 -25 l0 -25 39 28 c30 21 35
28 22 33 -11 4 -2 10 28 19 40 10 51 9 104 -12 129 -51 178 -131 179 -290 0
-112 -21 -178 -76 -232 -52 -52 -186 -100 -186 -67 0 5 -14 14 -32 20 -17 6
-40 19 -50 28 -17 15 -18 11 -18 -111 l0 -127 48 3 47 3 3 52 c3 51 4 52 31
47 52 -11 113 15 168 70 28 28 66 63 83 78 l32 27 39 -31 c22 -18 50 -46 64
-64 39 -50 107 -78 190 -78 45 1 83 7 107 18 40 19 100 75 93 86 -2 4 20 5 50
2 l55 -4 1 93 c0 52 3 153 5 224 3 72 2 154 -1 183 l-6 52 -44 0 c-25 0 -46
-5 -49 -12 -3 -9 -11 -5 -23 12 -67 97 -154 134 -256 109 -45 -10 -62 -23
-134 -96 l-83 -84 -43 33 c-23 18 -44 37 -46 41 -9 21 -66 79 -90 92 -35 18
-109 26 -150 15z m648 -81 c18 -6 30 -14 27 -17 -3 -2 13 -14 35 -25 77 -38
120 -128 118 -250 0 -40 -3 -66 -6 -59 -6 14 -89 17 -98 2 -3 -5 -39 -10 -80
-10 -41 0 -77 5 -80 10 -3 6 -28 10 -55 10 l-48 0 7 -33 c18 -78 61 -119 133
-125 56 -4 113 11 103 28 -3 5 0 10 8 10 8 0 20 7 27 15 7 9 29 15 52 15 40 0
40 0 34 -32 -8 -39 -46 -81 -95 -104 -20 -9 -39 -21 -42 -27 -4 -5 -27 -11
-51 -14 -84 -10 -203 63 -251 152 -18 33 -22 57 -22 141 0 92 3 105 30 159 20
39 46 70 75 92 25 18 50 37 55 41 42 34 73 39 124 21z"/>
<path d="M23188 925 c-24 -14 -68 -86 -68 -113 0 -8 18 -12 50 -12 38 0 50 4
50 15 0 9 9 15 24 15 13 0 26 -7 30 -15 4 -11 20 -15 55 -15 l49 0 -7 33 c-17
74 -53 107 -116 107 -22 -1 -52 -7 -67 -15z"/>
<path d="M23754 1129 c-17 -5 -39 -18 -49 -29 -24 -27 -35 -25 -35 5 0 23 -4
25 -45 25 l-45 0 0 -55 0 -55 49 0 c42 0 50 -3 53 -20 3 -18 6 -17 37 10 18
17 43 31 55 31 11 1 32 2 46 3 22 1 25 6 28 40 5 55 -20 67 -94 45z"/>
<path d="M24064 1130 c-45 -10 -98 -45 -113 -74 -10 -18 -25 -26 -57 -31 l-44
-6 0 -45 0 -44 -42 0 c-47 0 -100 -27 -118 -59 -7 -13 -9 -87 -8 -208 l3 -188
47 -3 48 -3 2 182 c3 185 9 212 40 173 7 -9 30 -34 51 -54 20 -20 37 -42 37
-49 0 -7 7 -25 15 -41 12 -23 22 -30 45 -30 24 0 32 -6 44 -34 18 -44 61 -66
126 -66 41 0 56 5 75 25 56 55 23 96 -107 134 -110 31 -141 49 -168 94 -40 65
-15 145 60 194 19 12 40 27 46 31 22 19 54 32 78 32 27 0 76 -19 76 -30 0 -3
15 -12 34 -18 45 -16 93 -72 102 -117 6 -34 7 -35 55 -35 33 0 49 4 49 13 -1
32 -41 96 -73 116 -20 12 -39 30 -42 41 -12 36 -81 87 -134 99 -58 12 -81 13
-127 1z"/>
<path d="M20530 1128 c0 -2 9 -25 19 -53 16 -44 23 -51 52 -55 l32 -5 66 -198
66 -197 64 200 64 200 33 0 c29 0 33 4 48 47 9 26 16 51 16 55 0 5 -21 8 -47
6 l-48 -3 -15 -52 c-14 -49 -17 -52 -49 -55 -31 -3 -36 -7 -49 -46 -16 -48
-24 -46 -42 11 -10 33 -15 37 -44 37 -30 0 -33 3 -50 55 l-17 55 -50 0 c-27 0
-49 -1 -49 -2z"/>
<path d="M19490 840 l0 -280 68 0 c96 0 140 15 187 64 51 53 65 99 65 216 0
117 -14 163 -65 216 -47 49 -91 64 -187 64 l-68 0 0 -280z m201 159 c27 -44
36 -174 18 -259 -11 -54 -19 -60 -86 -73 l-33 -7 0 182 0 181 46 -6 c26 -2 50
-11 55 -18z"/>
<path d="M20198 925 c-24 -14 -68 -86 -68 -113 0 -8 18 -12 50 -12 38 0 50 4
50 15 0 9 9 15 25 15 14 0 28 -7 31 -15 4 -10 21 -15 54 -15 l48 0 -7 33 c-17
74 -53 107 -116 107 -22 -1 -52 -7 -67 -15z"/>
<path d="M22630 933 c-8 -3 -27 -17 -42 -31 -28 -26 -28 -27 -28 -157 0 -90 4
-136 13 -147 25 -31 62 -48 108 -48 84 0 127 55 136 174 7 91 -17 160 -66 193
-32 22 -85 29 -121 16z"/>
<path d="M24056 919 c-34 -26 -36 -72 -3 -93 12 -8 58 -24 102 -36 44 -12 89
-27 100 -32 68 -35 106 -111 85 -173 -18 -54 -49 -85 -118 -117 -52 -24 -74
-29 -110 -25 -24 3 -47 9 -51 15 -3 6 -19 14 -35 18 -42 10 -102 73 -116 122
-13 41 -14 42 -57 42 -40 0 -43 -2 -43 -28 0 -33 38 -89 79 -114 16 -11 36
-30 45 -43 68 -104 261 -124 357 -38 21 19 39 41 39 47 0 6 16 20 37 31 47 26
73 69 73 123 0 55 -21 95 -64 121 -24 15 -38 34 -48 64 -12 39 -16 42 -51 45
-32 3 -40 8 -49 33 -20 57 -119 79 -172 38z"/>
<path d="M20129 677 c18 -78 61 -119 133 -125 56 -4 113 11 103 28 -3 5 0 10
8 10 8 0 20 7 27 15 7 9 29 15 51 15 34 0 39 3 39 23 0 55 -10 67 -56 67 -23
0 -46 -4 -49 -10 -3 -5 -39 -10 -80 -10 -41 0 -77 5 -80 10 -3 6 -28 10 -55
10 l-48 0 7 -33z"/>
</g>
</svg>
